:FULLY-SPECIFIED
:FORCE-ALL-JOINTS-BE-3DOF
:DEGREES
324
root 9.61367 16.3724 10.5534 6.72171 8.83091 3.05974
lfemur 27.7615 5.92142 -19.4825
ltibia -1.16291 0 0
lfoot 1.0002 -4.00999 -0.0305691
ltoes -15.2187 0 0
rfemur -43.7662 0.740081 16.1772
rtibia 41.5262 -0 0
rfoot -6.37969 -0.551987 0.152399
rtoes -19.6892 0 0
lowerback -7.78145 -4.8208 -5.24179
upperback -1.28437 -6.06279 2.2773
thorax 3.78456 -3.1012 4.61764
lowerneck -19.0076 -4.68437 -13.0268
upperneck 20.8771 -5.96715 13.3097
head 10.6662 -2.26917 6.14653
lclavicle 3.73268e-14 -1.55873e-14 5.00485e-31
lhumerus -23.5726 -36.3728 100.186
lradius 38.1935 -0 0
lwrist 7.39989 0 0
lhand -7.37544 -25.0658 0.00549692
lfingers 7.12502 -0 0
lthumb 18.5088 4.0611 0.0026057
rclavicle 3.73268e-14 -1.55873e-14 5.00485e-31
rhumerus -50.583 5.59696 -82.5876
rradius 30.1645 -0 0
rwrist -15.3368 0 0
rhand -28.2278 -24.6553 -0.00323845
rfingers 7.12502 -0 0
rthumb -1.60599 -54.6293 -0.00310749
325
root 9.61232 16.3635 10.5323 6.75415 8.95102 3.00158
lfemur 27.8784 5.87646 -19.2444
ltibia -1.10191 0 0
lfoot 1.31422 -4.06305 -0.0142646
ltoes -15.3064 0 0
rfemur -43.6013 0.837476 16.2697
rtibia 41.2811 -0 0
rfoot -6.11528 -0.248981 0.11843
rtoes -19.5662 0 0
lowerback -7.82064 -4.80105 -5.2096
upperback -1.31151 -6.03741 2.28358
thorax 3.77633 -3.08734 4.60571
lowerneck -18.9523 -4.71991 -13.0612
upperneck 20.8305 -6.02167 13.3556
head 10.6495 -2.29318 6.15884
lclavicle 3.6983e-14 -1.63397e-14 4.10963e-31
lhumerus -24.1525 -36.531 100.584
lradius 38.3537 -0 0
lwrist 7.49982 0 0
lhand -7.23066 -25.0481 0.00502707
lfingers 7.12502 -0 0
lthumb 18.6483 4.06898 0.00292219
rclavicle 3.6983e-14 -1.63397e-14 4.10963e-31
rhumerus -50.5271 5.65045 -82.6171
rradius 30.0493 -0 0
rwrist -15.2304 0 0
rhand -28.2172 -24.7221 -0.00241276
rfingers 7.12502 -0 0
rthumb -1.59576 -54.6962 -0.00231169
326
root 9.61307 16.3559 10.4844 6.7818 9.05696 2.94028
lfemur 27.9016 5.83202 -19.024
ltibia -0.958662 0 0
lfoot 1.57619 -4.08824 -0.00259337
ltoes -15.3662 0 0
rfemur -43.4176 0.938836 16.3711
rtibia 41.0426 -0 0
rfoot -5.90021 0.0295501 0.0855436
rtoes -19.4523 0 0
lowerback -7.85326 -4.77687 -5.17314
upperback -1.3351 -6.00687 2.28995
thorax 3.76722 -3.0709 4.5924
lowerneck -18.904 -4.75447 -13.0915
upperneck 20.7902 -6.07433 13.3959
head 10.6357 -2.31643 6.1689
lclavicle 3.66118e-14 -1.70677e-14 3.164e-31
lhumerus -24.7166 -36.6508 100.952
lradius 38.4881 -0 0
lwrist 7.60196 0 0
lhand -7.11036 -25.0277 0.00424855
lfingers 7.12502 -0 0
lthumb 18.7642 4.08135 0.00284292
rclavicle 3.66118e-14 -1.70677e-14 3.164e-31
rhumerus -50.4511 5.71753 -82.6484
rradius 29.9643 -0 0
rwrist -15.1438 0 0
rhand -28.2117 -24.7826 -0.00166212
rfingers 7.12502 -0 0
rthumb -1.59041 -54.7567 -0.00158952
327
root 9.61605 16.3497 10.4083 6.80434 9.14807 2.87579
lfemur 27.8271 5.78868 -18.8223
ltibia -0.729627 0 0
lfoot 1.78307 -4.0842 0.00394493
ltoes -15.3965 0 0
rfemur -43.2153 1.04413 16.4817
rtibia 40.8117 -0 0
rfoot -5.73773 0.281844 0.0544185
rtoes -19.3482 0 0
lowerback -7.87893 -4.74819 -5.13228
upperback -1.35488 -5.97108 2.29641
thorax 3.75727 -3.05185 4.5777
lowerneck -18.8633 -4.78793 -13.1174
upperneck 20.7566 -6.12498 13.4305
head 10.6253 -2.33883 6.17658
lclavicle 3.62132e-14 -1.77691e-14 2.16585e-31
lhumerus -25.2615 -36.7313 101.287
lradius 38.5954 -0 0
lwrist 7.70655 0 0
lhand -7.01604 -25.0044 0.00315284
lfingers 7.12502 -0 0
lthumb 18.8551 4.09839 0.00234163
rclavicle 3.62132e-14 -1.77691e-14 2.16585e-31
rhumerus -50.354 5.79882 -82.6815
rradius 29.9111 -0 0
rwrist -15.0779 0 0
rhand -28.2115 -24.8365 -0.00100117
rfingers 7.12502 -0 0
rthumb -1.59023 -54.8106 -0.000955167
328
root 9.62137 16.3449 10.3029 6.82144 9.22367 2.8081
lfemur 27.6511 5.74693 -18.6407
ltibia -0.411256 0 0
lfoot 1.9318 -4.04959 0.00492292
ltoes -15.3962 0 0
rfemur -42.9945 1.1533 16.602
rtibia 40.5891 -0 0
rfoot -5.63108 0.506141 0.0257033
rtoes -19.2546 0 0
lowerback -7.89725 -4.71492 -5.08693
upperback -1.3706 -5.92998 2.30297
thorax 3.74648 -3.03016 4.5616
lowerneck -18.8306 -4.82019 -13.1387
upperneck 20.7301 -6.17341 13.4589
head 10.6182 -2.36029 6.18173
lclavicle 3.57873e-14 -1.84417e-14 1.11236e-31
lhumerus -25.7843 -36.7715 101.587
lradius 38.6743 -0 0
lwrist 7.81386 0 0
lhand -6.94921 -24.9783 0.00173616
lfingers 7.12502 -0 0
lthumb 18.9195 4.12029 0.00139826
rclavicle 3.57873e-14 -1.84417e-14 1.11236e-31
rhumerus -50.2349 5.89496 -82.7163
rradius 29.8913 -0 0
rwrist -15.0338 0 0
rhand -28.2169 -24.8834 -0.000443226
rfingers 7.12502 -0 0
rthumb -1.59545 -54.8573 -0.000421548
329
root 9.62915 16.3417 10.1671 6.83279 9.28311 2.73717
lfemur 27.3698 5.70719 -18.4801
ltibia 6.36111e-15 0 0
lfoot 2.01933 -3.98304 0
ltoes -15.3638 0 0
rfemur -42.7555 1.26631 16.7323
rtibia 40.3758 0 0
rfoot -5.58349 0.700675 0
rtoes -19.1723 0 0
lowerback -7.90783 -4.67699 -5.03697
upperback -1.382 -5.88346 2.30964
thorax 3.7349 -3.00579 4.54406
lowerneck -18.8063 -4.85112 -13.1551
upperneck 20.7113 -6.21944 13.4807
head 10.6149 -2.38074 6.18421
lclavicle 3.5334e-14 -1.90833e-14 0
lhumerus -26.2818 -36.7705 101.848
lradius 38.7235 0 0
lwrist 7.9241 0 0
lhand -6.91139 -24.9491 0
lfingers 7.12502 0 0
lthumb 18.956 4.14723 0
rclavicle 3.5334e-14 -1.90833e-14 0
rhumerus -50.0928 6.00658 -82.7526
rradius 29.9064 0 0
rwrist -15.0127 0 0
rhand -28.2282 -24.9229 0
rfingers 7.12502 0 0
rthumb -1.60635 -54.8966 0
